#!OML:ASF F:\VICON\USERDATA\INSTALL\Justin_Nancy\Justin_Nancy.ASF
:FULLY-SPECIFIED
:DEGREES
359
root -0.817442 17.5644 16.5984 -2.1426 -0.319394 -2.30315
lowerback 6.5321 0.561119 1.03422
upperback -0.120631 0.923405 2.48098
thorax -3.81493 0.462316 1.89482
lowerneck -15.3026 -5.40349 -10.377
upperneck 22.1813 -6.83886 7.79026
head 10.242 -3.16766 3.56328
rclavicle -7.88927e-016 -8.74653e-015
rhumerus -32.1409 -18.5585 -75.2472
rradius 26.5392
rwrist 10.2293
rhand -14.7414 12.2482
rfingers 7.12502
rthumb 11.4141 -17.4211
lclavicle -7.88927e-016 -8.74653e-015
lhumerus -33.4385 3.50793 85.3573
lradius 33.6426
lwrist -5.50017
lhand -13.1361 27.7026
lfingers 7.12502
lthumb 12.962 57.28
rfemur -6.43148 5.31524 27.8686
rtibia 21.9832
rfoot -8.15457 -6.60456
rtoes 1.56445
lfemur -20.2675 2.96697 -16.629
ltibia 67.0062
lfoot 1.29813 -7.53109
ltoes -6.37942
360
root -0.819797 17.54 16.756 -1.98612 -0.400336 -2.34304
lowerback 6.61111 0.590343 1.18754
upperback -0.258853 0.9771 2.40099
thorax -4.00015 0.485204 1.71965
lowerneck -15.185 -5.39639 -10.2735
upperneck 22.1568 -6.85081 7.72812
head 10.2054 -3.17414 3.52327
rclavicle -4.44159e-016 1.66979e-014
rhumerus -31.7949 -17.5623 -75.8269
rradius 26.7962
rwrist 9.58077
rhand -14.6811 11.6679
rfingers 7.12502
rthumb 11.4723 -17.9981
lclavicle -4.44159e-016 1.66979e-014
lhumerus -33.7902 3.69372 85.1369
lradius 33.1033
lwrist -6.27965
lhand -13.0761 27.326
lfingers 7.12502
lthumb 13.0198 56.8997
rfemur -6.04048 5.4639 28.0184
rtibia 22.1608
rfoot -8.76854 -6.90721
rtoes 1.33052
lfemur -21.5952 2.85167 -16.6987
ltibia 66.7115
lfoot 0.187811 -6.3648
ltoes -5.50126
361
root -0.810682 17.5321 16.9233 -1.82408 -0.300007 -2.04906
lowerback 6.64596 0.564765 1.14953
upperback -0.449766 0.939147 2.22987
thorax -4.21467 0.465291 1.56694
lowerneck -15.0095 -5.35733 -10.3077
upperneck 22.2115 -6.80888 7.73115
head 10.1886 -3.16178 3.53987
rclavicle -5.64284e-015 -2.3059e-014
rhumerus -31.6502 -16.4344 -76.2854
rradius 27.222
rwrist 8.89815
rhand -14.8373 11.6301
rfingers 7.12502
rthumb 11.3217 -18.0443
lclavicle -5.64284e-015 -2.3059e-014
lhumerus -34.1443 4.04693 84.876
lradius 32.5468
lwrist -7.43354
lhand -10.9073 27.5148
lfingers 7.12502
lthumb 15.1098 56.9433
rfemur -5.69225 5.16614 27.6983
rtibia 22.4059
rfoot -9.58534 -6.94307
rtoes 0.763072
lfemur -22.7504 2.47019 -17.2387
ltibia 66.1741
lfoot -0.856602 -5.15768
ltoes -5.6943
362
root -0.80552 17.5196 17.0939 -1.66908 -0.28342 -2.06871
lowerback 6.57239 0.617399 1.38566
upperback -0.51341 1.02427 2.14606
thorax -4.23527 0.501185 1.33919
lowerneck -15.1171 -5.36216 -10.3196
upperneck 22.3096 -6.81012 7.74323
head 10.2455 -3.15957 3.54591
rclavicle -6.7944e-016 8.34896e-015
rhumerus -31.2972 -15.7278 -76.6339
rradius 27.5974
rwrist 8.50523
rhand -15.0402 11.9308
rfingers 7.12502
rthumb 11.126 -17.7542
lclavicle -6.7944e-016 8.34896e-015
lhumerus -34.3994 4.02952 84.7977
lradius 32.0402
lwrist -7.84193
lhand -9.87432 27.6932
lfingers 7.12502
lthumb 16.1047 57.0441
rfemur -5.31978 5.0334 27.7515
rtibia 22.6558
rfoot -10.3883 -7.16259
rtoes -0.132532
lfemur -23.7993 2.19903 -17.3525
ltibia 65.4749
lfoot -2.12534 -4.08982
ltoes -7.37031
363
root -0.805998 17.4999 17.2556 -1.49904 -0.524839 -2.28465
lowerback 6.48799 0.725465 1.69616
upperback -0.467428 1.18963 2.16533
thorax -4.1365 0.576803 1.16919
lowerneck -15.2611 -5.34084 -10.4341
upperneck 22.2235 -6.76254 7.87511
head 10.2464 -3.12884 3.61618
rclavicle -1.80366e-014 -1.43125e-014
rhumerus -30.6927 -14.8411 -77.106
rradius 28.1267
rwrist 7.85924
rhand -14.8206 11.4611
rfingers 7.12502
rthumb 11.3378 -18.2124
lclavicle -1.80366e-014 -1.43125e-014
lhumerus -34.6869 4.04407 84.7793
lradius 31.7254
lwrist -7.70294
lhand -10.2527 27.3619
lfingers 7.12502
lthumb 15.7403 56.7418
rfemur -4.91525 5.31255 28.079
rtibia 22.7428
rfoot -10.9617 -7.53289
rtoes -0.574654
lfemur -24.9233 2.14827 -17.1791
ltibia 64.656
lfoot -3.49729 -2.92194
ltoes -9.25099
364
root -0.806947 17.477 17.413 -1.37299 -0.706865 -2.58503
lowerback 6.46536 0.817861 2.11162
upperback -0.352962 1.34224 2.20666
thorax -3.99803 0.64489 0.964665
lowerneck -15.6203 -5.32439 -10.456
upperneck 22.1473 -6.69377 7.89002
head 10.2817 -3.08833 3.62871
rclavicle -1.95989e-014 -1.86858e-014
rhumerus -30.0103 -14.0783 -77.5343
rradius 28.6933
rwrist 7.3326
rhand -14.5866 10.9436
rfingers 7.12502
rthumb 11.5635 -18.7173
lclavicle -1.95989e-014 -1.86858e-014
lhumerus -34.5807 4.20091 84.7435
lradius 31.0987
lwrist -7.76213
lhand -10.2908 27.4518
lfingers 7.12502
lthumb 15.7036 56.8347
rfemur -4.42621 5.52799 28.4967
rtibia 22.704
rfoot -11.4855 -7.79579
rtoes -0.657812
lfemur -26.0443 2.08648 -16.9251
ltibia 63.7571
lfoot -4.56248 -1.52879
ltoes -10.169
